<?xml version="1.0" encoding="iso-8859-1"?>
<!-- Uploaded to: SVG Repo, www.svgrepo.com, Generator: SVG Repo Mixer Tools -->
<svg version="1.1" id="Layer_1" xmlns="http://www.w3.org/2000/svg" xmlns:xlink="http://www.w3.org/1999/xlink" 
	 viewBox="0 0 502 502" xml:space="preserve">
<g>
	<rect x="10" y="165.266" style="fill:#E4DCD3;" width="44.959" height="171.471"/>
	<rect x="54.959" y="128.671" style="fill:#535C61;" width="67.041" height="244.659"/>
	<rect x="379.959" y="128.671" style="fill:#535C61;" width="67.041" height="244.659"/>
	<rect x="447.041" y="165.266" style="fill:#E4DCD3;" width="44.959" height="171.471"/>
	<rect x="122" y="232.181" style="fill:#E4DCD3;" width="258" height="37.64"/>
	<g>
		<path d="M492,155.266h-35v-26.595c0-5.523-4.477-10-10-10h-67.041c-5.523,0-10,4.477-10,10v93.51H132v-93.51
			c0-5.523-4.477-10-10-10H54.959c-5.523,0-10,4.477-10,10v26.594H10c-5.523,0-10,4.477-10,10v171.471c0,5.523,4.477,10,10,10
			h34.959v26.594c0,5.523,4.477,10,10,10H122c5.523,0,10-4.477,10-10v-93.51h237.959v93.51c0,5.523,4.477,10,10,10H447
			c5.523,0,10-4.477,10-10v-26.594h35c5.523,0,10-4.477,10-10v-171.47C502,159.743,497.523,155.266,492,155.266z M20,326.736
			v-151.47h24.959v151.471H20V326.736z M112,363.331H64.959v-26.594V165.266v-26.595H112v93.51v37.64V363.331z M132,259.821v-17.64
			h237.959v17.64H132z M437,363.331h-47.041v-92.698c0.022-0.269,0.041-0.538,0.041-0.812v-37.64c0-0.274-0.019-0.544-0.041-0.812
			v-92.698H437V363.331z M482,326.736h-24.959v-151.47H482V326.736z"/>
		<path d="M87,228.001c-5.523,0-10,4.477-10,10v104c0,5.523,4.477,10,10,10s10-4.477,10-10v-104
			C97,232.478,92.523,228.001,87,228.001z"/>
		<path d="M87,169.001c-5.523,0-10,4.477-10,10v24c0,5.523,4.477,10,10,10s10-4.477,10-10v-24C97,173.478,92.523,169.001,87,169.001
			z"/>
	</g>
</g>
</svg>