<svg width="47" height="47" viewBox="0 0 47 47" fill="none" xmlns="http://www.w3.org/2000/svg">
<path d="M13.8864 0C6.2275 0 0 6.2275 0 13.8864V33.1136C0 40.7725 6.2275 47 13.8864 47H33.1136C40.7725 47 47 40.7725 47 33.1136V13.8864C47 6.2275 40.7725 0 33.1136 0H13.8864ZM36.3182 8.54545C37.4932 8.54545 38.4545 9.50682 38.4545 10.6818C38.4545 11.8568 37.4932 12.8182 36.3182 12.8182C35.1432 12.8182 34.1818 11.8568 34.1818 10.6818C34.1818 9.50682 35.1432 8.54545 36.3182 8.54545ZM23.5 11.75C29.9839 11.75 35.25 17.0161 35.25 23.5C35.25 29.9839 29.9839 35.25 23.5 35.25C17.0161 35.25 11.75 29.9839 11.75 23.5C11.75 17.0161 17.0161 11.75 23.5 11.75ZM23.5 13.8864C18.2018 13.8864 13.8864 18.2018 13.8864 23.5C13.8864 28.7982 18.2018 33.1136 23.5 33.1136C28.7982 33.1136 33.1136 28.7982 33.1136 23.5C33.1136 18.2018 28.7982 13.8864 23.5 13.8864Z" fill="black"/>
</svg>
