<svg width="47" height="45" viewBox="0 0 47 45" fill="none" xmlns="http://www.w3.org/2000/svg">
<path d="M23.5001 0C10.5424 0 0.000151648 10.0937 0.000151648 22.5C0.000151648 26.3739 1.04539 30.1833 3.02756 33.5446L0.0379558 43.7576C-0.0601308 44.0932 0.0348908 44.4532 0.288281 44.7026C0.483433 44.8953 0.749084 45 1.02189 45C1.10363 45 1.18639 44.9902 1.2671 44.9716L12.3999 42.3313C15.7993 44.0785 19.6277 45 23.5001 45C36.4577 45 47 34.9063 47 22.5C47 10.0937 36.4577 0 23.5001 0ZM35.3216 30.4396C34.8189 31.772 32.4076 32.9879 31.2489 33.1513C30.2088 33.2971 28.8928 33.3597 27.4481 32.9253C26.5724 32.6612 25.4485 32.311 24.0089 31.723C17.9572 29.252 14.0051 23.491 13.7027 23.1104C13.4012 22.7299 11.2392 20.0182 11.2392 17.2115C11.2392 14.4049 12.7974 13.0246 13.3512 12.4533C13.905 11.882 14.5578 11.7391 14.9604 11.7391C15.363 11.7391 15.7645 11.744 16.117 11.7597C16.4879 11.7773 16.9855 11.6257 17.4749 12.7389C17.9776 13.8815 19.1843 16.6882 19.3334 16.9748C19.4847 17.2604 19.5848 17.594 19.3845 17.9746C19.1843 18.3551 19.0841 18.5928 18.7817 18.9264C18.4793 19.26 18.1482 19.6699 17.8764 19.9262C17.574 20.2109 17.2603 20.519 17.6118 21.0903C17.9633 21.6616 19.174 23.5291 20.9682 25.0415C23.2722 26.9843 25.2166 27.587 25.8194 27.8726C26.4222 28.1583 26.7747 28.1103 27.1262 27.7298C27.4777 27.3483 28.6343 26.0638 29.0358 25.4935C29.4374 24.9232 29.8399 25.0171 30.3937 25.2078C30.9475 25.3976 33.9136 26.777 34.5164 27.0626C35.1193 27.3483 35.5218 27.4911 35.673 27.7288C35.8243 27.9655 35.8243 29.1082 35.3216 30.4396Z" fill="black"/>
</svg>
